<svg xmlns="http://www.w3.org/2000/svg" xmlns:xlink="http://www.w3.org/1999/xlink" width="480" height="480" version="1.1" style=""><rect id="backgroundrect" width="100%" height="100%" x="0" y="0" fill="none" stroke="none"/>
    <!-- Generator: Sketch 40.3 (33839) - http://www.bohemiancoding.com/sketch -->
    <title>codewars</title>
    <desc>Created with Sketch.</desc>
    <defs><filter id="f048" xmlns:inkscape="http://www.inkscape.org/namespaces/inkscape" inkscape:label="Molten metal" inkscape:menu="Bevels" inkscape:menu-tooltip="Melting parts of object together, with a glossy bevel and a glow" color-interpolation-filters="sRGB">
            <feGaussianBlur stdDeviation="5" result="result1"/>
            <feColorMatrix result="result10" values="1 0 0 0 0 0 1 0 0 0 0 0 1 0 0 0 0 0 5 -4 "/>
            <feComposite operator="atop" in="result10" in2="result10" result="result8"/>
            <feComposite operator="in" result="fbSourceGraphic" in="result1" in2="result8"/>
            <feGaussianBlur result="result0" in="fbSourceGraphic" stdDeviation="5"/>
            <feSpecularLighting specularExponent="55" specularConstant="2.5" surfaceScale="2" lighting-color="#fff" result="result1" in="result0">
                <feDistantLight azimuth="225" elevation="60"/>
            </feSpecularLighting>
            <feComposite operator="in" result="result2" in="result1" in2="fbSourceGraphic"/>
            <feComposite k3="1" k2="1" operator="arithmetic" result="result4" in="fbSourceGraphic" in2="result2"/>
            <feComposite operator="in" in="result9" in2="result4" result="result9"/>
            <feBlend mode="multiply" in="result9" in2="result9"/>
        </filter></defs>
    
<g class="currentLayer" style=""><title>Layer 1</title><g id="Page-1" stroke="#ffffff" stroke-width="1" fill="#ffffff" fill-rule="evenodd" class="selected" opacity="1" filter="" fill-opacity="1" stroke-opacity="1">
        <g id="vendor-codewars" fill="#ffffff" opacity="1" filter="" fill-opacity="1" stroke="#ffffff" stroke-opacity="1">
            <path d="M439.473333,0.3200000000000003 L40.113333299999994,0.3200000000000003 C18.1133333,0.3200000000000003 0.11333330000000075,18.32 0.11333330000000075,40.31999999999999 L0.11333330000000075,439.68 C0.11333330000000075,461.68 18.1133333,479.67999999999995 40.113333299999994,479.67999999999995 L439.473333,479.67999999999995 C461.473333,479.67999999999995 479.473333,461.68 479.473333,439.68 L479.473333,40.31999999999999 C479.473333,18.32 461.473333,0.3200000000000003 439.473333,0.3200000000000003 zM448.56,285.193333 C446.586667,287.136667 444.706667,289.176667 442.033333,291.946667 C445.883333,315.08 430.733333,328.803333 414.116667,341.633333 C396.81,354.996667 379.496667,368.356667 361.976667,381.44 C358.066667,384.36 353.29,386.116667 348.873333,388.426667 C337.96,418.563333 333.843333,422.266667 310.72,421.74 C305.186667,436.613333 294.2,442.536667 278.216667,438.336667 C277.156667,438.06 275.51,437.123333 275.156667,437.483333 C259.613333,453.47 241.77666699999997,441.15 225.58333299999998,440.096667 C213.616667,439.32 201.49,431.636667 190.706667,424.97 C181.596667,419.336667 175.15,408.98 162.2,411.976667 C161.706667,412.09 161,411.963333 160.593333,411.67 C148.11,402.633333 133.02,408.183333 120.35666699999999,404.78 C103.93,400.37 89.32666699999999,388.89 74.29,379.873333 C72.026667,378.516667 71.58,374.03 70.436667,370.94 C69.67,368.87 69.663333,365.22 68.45,364.806667 C52.03,359.203333 52.650000000000006,343.59 47.216666700000005,331.096667 C42.16,319.473333 38.650000000000006,309.083333 45.056666699999994,297.013333 C46.56999999999999,294.163333 46.503333299999994,289.39 45.22,286.316667 C36.9366667,266.526667 36.760000000000005,266.593333 38.7933333,246.91333300000002 C21.8066667,232.436667 19.310000000000002,221.443333 33.113333299999994,204.003333 C27.58,191.48 24.796666700000003,178.823333 39.9033333,169.77 C41.033333299999995,169.093333 41.41,166.89 41.81,165.316667 C46.7366667,145.98 61.349999999999994,133.82 76.68,124.31 C90.73666700000001,115.593333 107.85,113.413333 117.11333300000001,95.82666699999999 C120.57666699999999,89.25 131.316667,85.4 133.476667,75.393333 C133.986667,73.03 136.613333,70.7 138.84,69.21 C149.91,61.8 162.84,57.989999999999995 172.956667,47.989999999999995 C177.206667,43.7933333 189.063333,47.2933333 200.316667,47.2933333 C215.266667,28.620000000000005 235.8,43.8 254.76,46.22333329999999 C263.73,47.366666699999996 271.75,55.3533333 280.403333,59.8466667 C284.206667,61.823333000000005 288.45,63.106667 292.633333,64.14 C295.266667,64.79 298.513333,63.576667 300.876667,64.603333 C314.17,70.373333 327.413333,74.133333 341.886667,68.55 C343.87,67.786667 348.316667,69.293333 349.453333,71.106667 C358.753333,85.97 377.586667,81.17 388.973333,90.82666699999999 C392.246667,93.60333299999999 392.77,99.62 394.996667,105.26666700000001 C405.88,108.82333299999999 417.76,113.11333300000001 414.886667,129.416667 C426.55,136.613333 418.916667,151.79 427.62,160.21 C418.433333,180.286667 439.85,197.02 433.833333,218.08999999999997 C436.683333,220.063333 440.983333,221.87 443.51,225.073333 C447.136667,229.676667 453.25,237.66666700000002 451.726667,240.09666700000002 C442.413333,254.98333300000002 462.6,271.363333 448.56,285.193333 zM235.113333,103.253333 C212.986667,111.44666699999999 212.72,111.84 217.66333300000002,131.68 C206.906667,136.463333 200.403333,144.253333 206.083333,157.32 C206.803333,158.98 206.373333,162.086667 205.213333,163.45 C200.123333,169.416667 201.093333,174.943333 203.723333,181.853333 C205.173333,185.663333 202.323333,191.11 201.423333,195.753333 C206.15,202.256667 211.273333,208.463333 215.313333,215.31 C216.82999999999998,217.876667 217.20999999999998,223.673333 215.656667,224.90666700000003 C213.26,226.806667 208.15,227.433333 205.246667,226.17000000000002 C193.66,221.136667 181.49,216.51 171.473333,209.11 C163.636667,203.32 158.15,193.996667 152.57,185.613333 C148.496667,179.493333 145.966667,172.346667 141.243333,162.526667 C142.293333,160.44 145.04,155.28 147.5,149.986667 C149.233333,146.26 152.76,141.543333 151.693333,138.68 C148.553333,130.263333 154.563333,123.783333 154.696667,116.92666700000001 C155.036667,99.16999999999999 174.66,95.57333299999999 178.233333,80.996667 C197.216667,72.633333 214.77,58.870000000000005 237.73000000000002,65.68 C241.29000000000002,66.736667 245.183333,66.666667 248.436667,67.06 C252.57,75.43 248.12,80.056667 243.926667,85.56 C240.09333299999997,90.593333 238.10666700000002,97.036667 235.113333,103.253333 zM372.606667,118.72999999999999 C380.993333,126.156667 387.45,131.876667 394.756667,138.346667 C396.543333,146.25 398.59,155.29 400.633333,164.326667 C399.506667,165.21 398.383333,166.09 397.256667,166.973333 C382.516667,157.363333 363.8,168.026667 349.546667,155.536667 C348.463333,154.586667 346.303333,154.293333 344.77,154.526667 C330.493333,156.703333 315.51,157.01 302.15,161.806667 C276.953333,170.846667 253.89999999999998,184.19 237.82999999999998,210.083333 C226.806667,198.4 226.923333,186.403333 229.443333,174.53 C231.876667,163.063333 235.95666699999998,151.946667 239.60333300000002,139.703333 C253.53666700000002,139.86 252.91666700000002,126.786667 256.72,119.056667 C287.72,107.14333300000001 317.536667,94.15 352.61,106.503333 C355.93,114.21000000000001 362.366667,122.183333 372.606667,118.72999999999999 zM238.506667,254.48000000000002 C250.876667,281.25 241.926667,304.726667 230.76666699999998,326.846667 C225.996667,333.13 221.2,339.39 216.47666700000002,345.706667 C215.16,347.466667 214.056667,350.996667 212.86,350.993333 C196.18,350.956667 186.22,367.546667 168.66,367.37 C154.576667,367.23 141.163333,369.9 126.75,364.993333 C109.89666700000001,359.253333 96.44,350.533333 83.866667,338.113333 C73.583333,327.956667 70.88,318.043333 74.59,304.833333 L108.366667,304.833333 C116.45333299999999,314.706667 127.906667,320.096667 142.69,311.296667 C145.123333,309.846667 149.003333,310.976667 152.173333,310.58 C158.583333,309.776667 165.05,309.126667 171.326667,307.696667 C177.53,306.286667 183.53,303.98 189.623333,302.086667 C191.72,301.436667 194.44,301.47 195.84,300.12 C204.676667,291.606667 213.376667,282.936667 221.81,274.023333 C227.11,268.416667 231.866667,262.296667 238.506667,254.48000000000002 zM101.88,136.04 C100.306667,149.896667 102.01666700000001,160.753333 115.03999999999999,167.496667 C109.92666700000001,181.876667 108.963333,194.52 126.66666699999999,199.653333 C127.65,199.936667 129.18,200.773333 129.236667,201.453333 C130.55,217.246667 144.396667,218.90333299999998 154.523333,225.88 C170.72,237.04333300000002 186.88,244.17000000000002 206.743333,241.81 C209.993333,241.423333 213.486667,243.063333 217.183333,243.82999999999998 C215.176667,259.766667 203.076667,267.253333 193.233333,270.766667 C174.56,277.43 155.596667,289.65 133.716667,278.976667 C129.53,276.936667 123.05000000000001,279.593333 119.36333300000001,279.926667 C96.53,269.316667 85.56,247.33333299999998 66.413333,233.193333 C67.326667,223.28666700000002 74.683333,211.673333 62.129999999999995,204.986667 C65.213333,174.763333 76.033333,151.106667 101.88,136.04 zM379.96,339.24 C377.823333,333.526667 374.48,329.156667 375.17,325.563333 C377.28,314.57 372.956667,307.293333 363.473333,301.27 C367.836667,287.85 363.24,278.01 351.223333,270.866667 C348.513333,269.256667 346.216667,265.036667 345.836667,261.773333 C344.75,252.47666700000002 339.87,247.993333 330.92,246.876667 C328.266667,246.546667 324.6,246.10000000000002 323.313333,244.32 C310.4,226.47333300000003 290.376667,226.79333300000002 271.733333,223.553333 C267.24,222.77333299999998 262.72,222.15666700000003 257.75,221.39666699999998 C259.123333,205.366667 271.993333,200.726667 280.363333,197.646667 C299.506667,190.603333 320.373333,181.003333 340.866667,189.736667 C357.186667,196.693333 377.263333,197.87 388.036667,216.15666700000003 C391.343333,221.77333299999998 398.963333,224.84666700000002 404.586667,229.066667 C407.74,238.76666699999998 411.046667,248.933333 414.863333,260.673333 L414.863333,293.523333 C406.103333,306.77 399.426667,325.106667 379.96,339.24 zM190.09,395.27 C221.33333299999998,395.69 224.673333,393.653333 231.693333,370.656667 C245.003333,366.226667 256.436667,359.283333 256.603333,342.24 C256.623333,340.16 259.833333,338.116667 261.563333,336.05 C263.66,333.543333 267.276667,331.22 267.606667,328.496667 C270.06,308.193333 274.44,287.77 267.326667,267.516667 C264.506667,259.486667 261.353333,251.573333 257.143333,240.39666699999998 C265.323333,241.22000000000003 270.76,240.71333299999998 275.386667,242.41333300000002 C295.06,249.633333 310.813333,262.84 323.126667,279.196667 C328.92,286.893333 330.453333,297.793333 334.85,309.796667 C330.01,316.92 327.753333,327.243333 336.72,337.716667 C324.913333,347.283333 318.78,358.536667 320.683333,371.583333 C311.33,380.56 302.846667,388.706667 291.913333,399.203333 C285.82,401.916667 276.063333,406.256667 266.88,410.34 C258.966667,411.83 251.23333300000002,413.996667 243.386667,414.556667 C235.83333299999998,415.093333 226.676667,416.46 220.876667,413.006667 C211.243333,407.266667 195.78,411.596667 190.09,395.27 z" id="codewars" opacity="1" filter="" fill="#ffffff" fill-opacity="1" stroke="#ffffff" stroke-opacity="1"/>
        </g>
    </g></g></svg>